<?xml version="1.0" encoding="utf-8"?>
<!-- Generator: Adobe Illustrator 15.0.0, SVG Export Plug-In . SVG Version: 6.00 Build 0)  -->
<!DOCTYPE svg PUBLIC "-//W3C//DTD SVG 1.1//EN" "http://www.w3.org/Graphics/SVG/1.1/DTD/svg11.dtd">
<svg version="1.1" id="Layer_1" xmlns="http://www.w3.org/2000/svg" xmlns:xlink="http://www.w3.org/1999/xlink" x="0px" y="0px"
	 width="176px" height="208px" viewBox="0 0 176 208" enable-background="new 0 0 176 208" xml:space="preserve">
<g>
	<line fill="none" stroke="#000000" stroke-width="3" stroke-miterlimit="10" x1="25.755" y1="113.998" x2="145.755" y2="113.998"/>
	<line fill="none" stroke="#000000" stroke-width="3" stroke-miterlimit="10" x1="25.755" y1="94.017" x2="145.755" y2="94.017"/>
	<line fill="none" stroke="#000000" stroke-width="3" stroke-miterlimit="10" x1="25.755" y1="74.008" x2="145.755" y2="74.008"/>
	<line fill="none" stroke="#000000" stroke-width="3" stroke-miterlimit="10" x1="25.755" y1="53.998" x2="145.755" y2="53.998"/>
	<line fill="none" stroke="#000000" stroke-width="3" stroke-miterlimit="10" x1="25.755" y1="34.017" x2="145.755" y2="34.017"/>
	<line fill="none" stroke="#000000" stroke-width="3" stroke-miterlimit="10" x1="125.745" y1="14.007" x2="125.745" y2="134.01"/>
	<line fill="none" stroke="#000000" stroke-width="3" stroke-miterlimit="10" x1="105.765" y1="14.007" x2="105.765" y2="134.01"/>
	<line fill="none" stroke="#000000" stroke-width="3" stroke-miterlimit="10" x1="85.755" y1="14.007" x2="85.755" y2="134.01"/>
	<line fill="none" stroke="#000000" stroke-width="3" stroke-miterlimit="10" x1="65.745" y1="14.007" x2="65.745" y2="134.01"/>
	<line fill="none" stroke="#000000" stroke-width="3" stroke-miterlimit="10" x1="45.765" y1="14.007" x2="45.765" y2="134.01"/>
</g>
<line fill="none" stroke="#ED1C24" stroke-width="3" stroke-miterlimit="10" x1="57.255" y1="134.01" x2="57.755" y2="86.496"/>
<line fill="none" stroke="#ED1C24" stroke-width="3" stroke-miterlimit="10" x1="56.255" y1="86.496" x2="93.255" y2="86.496"/>
<line fill="none" stroke="#ED1C24" stroke-width="3" stroke-miterlimit="10" x1="91.755" y1="87.996" x2="91.755" y2="45.496"/>
<line fill="none" stroke="#ED1C24" stroke-width="3" stroke-miterlimit="10" x1="90.255" y1="45.496" x2="129.755" y2="45.496"/>
<line fill="none" stroke="#ED1C24" stroke-width="3" stroke-miterlimit="10" x1="105.995" y1="45.496" x2="145.494" y2="45.496"/>
<line fill="none" stroke="#F15A24" stroke-width="3" stroke-miterlimit="10" x1="74.855" y1="66.496" x2="115.655" y2="66.496"/>
<line fill="none" stroke="#F15A24" stroke-width="3" stroke-miterlimit="10" x1="74.755" y1="104.996" x2="74.755" y2="65.496"/>
<line fill="none" stroke="#F15A24" stroke-width="3" stroke-miterlimit="10" x1="114.265" y1="65.6" x2="115.046" y2="106.392"/>
<line fill="none" stroke="#F15A24" stroke-width="3" stroke-miterlimit="10" x1="114.046" y1="105.392" x2="141.755" y2="105.392"/>
<line fill="none" stroke="#F7931E" stroke-width="3" stroke-miterlimit="10" x1="57.755" y1="17.007" x2="57.755" y2="48.496"/>
<line fill="none" stroke="#F7931E" stroke-width="3" stroke-miterlimit="10" x1="56.255" y1="46.996" x2="74.755" y2="46.996"/>
<line fill="none" stroke="#F7931E" stroke-width="3" stroke-miterlimit="10" x1="74.755" y1="45.996" x2="74.755" y2="102.392"/>
<line fill="none" stroke="#F7931E" stroke-width="3" stroke-miterlimit="10" x1="73.255" y1="103.892" x2="92.755" y2="103.892"/>
<line fill="none" stroke="#F7931E" stroke-width="3" stroke-miterlimit="10" x1="92.755" y1="102.392" x2="92.755" y2="134.496"/>
<line fill="none" stroke="#F15A24" stroke-width="3" stroke-miterlimit="10" x1="73.855" y1="66.496" x2="36.255" y2="66.496"/>
<line fill="none" stroke="#F15A24" stroke-width="3" stroke-miterlimit="10" x1="36.255" y1="67.496" x2="36.255" y2="47.496"/>
<line fill="none" stroke="#F15A24" stroke-width="3" stroke-miterlimit="10" x1="37.255" y1="47.496" x2="26.755" y2="47.496"/>
<text transform="matrix(1 0 0 1 14.4888 180.5527)" font-family="'HelveticaNeue-Light'" font-size="14">walking, running, cycling</text>
<text transform="matrix(1 0 0 1 23.6787 159.3486)" font-family="'HelveticaNeue-Light'" font-size="18">Explore your city </text>
</svg>
